# xmcd
# Copyright (C) 1995-1998 Ti Kan
#
# Track frame offsets:
#       150
#       14632
#       33140
#       49782
#       64307
#       76115
#       89135
#       103052
#       118620
#       135032
#       151955
#       161360
#       176562
#       193117
#       206942
#       222670
#       235690
#       249635
#       268965
#       282462
#       292987
#
# Disc length: 4098 seconds
#
# Revision: 0
# Processed by: cddbd v1.5.2PL0 Copyright (c) Steve Scherf et al.
# Submitted via: CD-Import v1.0
#
DISCID=38100015
DTITLE=Sonny and Cher - Best Of Sonny and Cher - The Beat Goes On
DYEAR=1900
DGENRE=
TTITLE0=Baby Don't Go
TTITLE1=Just You
TTITLE2=Sing C'est La Vie
TTITLE3=I Got You Babe
TTITLE4=Why Don't They Let Us Fall In Love
TTITLE5=Laugh At Me
TTITLE6=But You're Mine
TTITLE7=The Revolution Kind
TTITLE8=What Now My Love
TTITLE9=Have I Stayed Too Long
TTITLE10=Leave Me Be
TTITLE11=Little Man
TTITLE12=Living For You
TTITLE13=Love Don't Come
TTITLE14=The Beat Goes On
TTITLE15=Beautiful Story
TTITLE16=It's The Little Things
TTITLE17=My Best Friend's Girl Is Out Of Sight
TTITLE18=Good Combination
TTITLE19=I Got You Babe
TTITLE20=Hello
EXTD=
EXTT0=
EXTT1=
EXTT2=
EXTT3=
EXTT4=
EXTT5=
EXTT6=
EXTT7=
EXTT8=
EXTT9=
EXTT10=
EXTT11=
EXTT12=
EXTT13=
EXTT14=
EXTT15=
EXTT16=
EXTT17=
EXTT18=
EXTT19=
EXTT20=
PLAYORDER=
